<svg xmlns="http://www.w3.org/2000/svg" width="218" height="218" viewBox="0 0 218 218">
  <path id="paper-plane" d="M187.354,2.782,10.243,104.928C-4.4,113.4-3,135.073,12.67,141.5l48.663,20.14v35.936c0,19.756,25.2,27.889,36.87,12.177l18.648-25.164,47.641,19.671a20.48,20.48,0,0,0,28.014-15.8L217.8,23.6c2.6-17.074-15.71-29.294-30.441-20.821ZM81.769,197.579V170.073L97.351,176.5Zm90.514-12.22L106.8,158.321l59.69-86.136c4.556-6.6-4.045-14.264-10.09-9.027L66.357,141.63l-45.9-18.99L197.572,20.452Z" transform="translate(-0.043 -0.025)"/>
</svg>
