<svg xmlns="http://www.w3.org/2000/svg" xmlns:xlink="http://www.w3.org/1999/xlink" width="218" height="218" viewBox="0 0 218 218">
  <defs>
    <clipPath id="clip-path">
      <rect id="Rectangle_4" data-name="Rectangle 4" width="218" height="218" transform="translate(686 2206)" fill="#fff" stroke="#707070" stroke-width="1"/>
    </clipPath>
  </defs>
  <g id="Mask_Group_2" data-name="Mask Group 2" transform="translate(-686 -2206)" clip-path="url(#clip-path)">
    <path id="clipboard-list-solid" d="M143.063,27.25H109a27.25,27.25,0,0,0-54.5,0H20.438A20.443,20.443,0,0,0,0,47.688V197.563A20.443,20.443,0,0,0,20.438,218H143.063A20.443,20.443,0,0,0,163.5,197.563V47.688A20.443,20.443,0,0,0,143.063,27.25ZM40.875,180.531a10.219,10.219,0,1,1,10.219-10.219A10.194,10.194,0,0,1,40.875,180.531Zm0-40.875a10.219,10.219,0,1,1,10.219-10.219A10.194,10.194,0,0,1,40.875,139.656Zm0-40.875A10.219,10.219,0,1,1,51.094,88.563,10.194,10.194,0,0,1,40.875,98.781ZM81.75,17.031A10.219,10.219,0,1,1,71.531,27.25,10.194,10.194,0,0,1,81.75,17.031Zm54.5,156.688a3.416,3.416,0,0,1-3.406,3.406H71.531a3.416,3.416,0,0,1-3.406-3.406v-6.812a3.416,3.416,0,0,1,3.406-3.406h61.313a3.416,3.416,0,0,1,3.406,3.406Zm0-40.875a3.416,3.416,0,0,1-3.406,3.406H71.531a3.416,3.416,0,0,1-3.406-3.406v-6.812a3.416,3.416,0,0,1,3.406-3.406h61.313a3.416,3.416,0,0,1,3.406,3.406Zm0-40.875a3.416,3.416,0,0,1-3.406,3.406H71.531a3.416,3.416,0,0,1-3.406-3.406V85.156a3.416,3.416,0,0,1,3.406-3.406h61.313a3.416,3.416,0,0,1,3.406,3.406Z" transform="translate(713.25 2206)"/>
  </g>
</svg>
